<svg xmlns="http://www.w3.org/2000/svg" version="1.1" xmlns:xlink="http://www.w3.org/1999/xlink" xmlns:svgjs="http://svgjs.com/svgjs" width="1440" height="560" preserveAspectRatio="none" viewBox="0 0 1440 560"><g mask="url(&quot;#SvgjsMask1000&quot;)" fill="none"><rect width="1440" height="560" x="0" y="0" fill="#1e3266"></rect><path d="M1536 560L0 560 L0 308.57Q49.45 286.02, 72 335.48Q125.86 269.34, 192 323.19Q265.09 276.28, 312 349.37Q380.85 298.22, 432 367.06Q442.68 305.74, 504 316.41Q549.4 241.82, 624 287.22Q714.17 257.39, 744 347.57Q811.16 294.74, 864 361.9Q903.33 281.23, 984 320.56Q1028.8 293.36, 1056 338.16Q1129.06 291.22, 1176 364.28Q1213.55 281.82, 1296 319.37Q1345.59 248.96, 1416 298.54Q1466.9 229.45, 1536 280.35z" fill="#182f5d"></path><path d="M1512 560L0 560 L0 404.97Q18.85 351.82, 72 370.67Q141.8 320.47, 192 390.26Q207.93 334.19, 264 350.12Q330.79 296.91, 384 363.7Q452.55 312.25, 504 380.8Q586.37 343.17, 624 425.54Q627.88 357.42, 696 361.29Q750.75 296.05, 816 350.8Q864.2 327, 888 375.2Q981.84 349.04, 1008 442.88Q1044.68 359.56, 1128 396.25Q1174.1 322.35, 1248 368.45Q1304.65 353.11, 1320 409.76Q1341.72 359.48, 1392 381.2Q1483 352.2, 1512 443.2z" fill="#25467d"></path><path d="M1488 560L0 560 L0 455.81Q50.43 386.24, 120 436.67Q219.64 416.31, 240 515.94Q254.67 410.62, 360 425.29Q403.45 396.74, 432 440.19Q485.91 422.1, 504 476.01Q554.63 406.64, 624 457.28Q684.04 445.31, 696 505.35Q699.55 436.9, 768 440.46Q796.55 397, 840 425.55Q918.89 384.44, 960 463.33Q990.53 421.87, 1032 452.4Q1076.63 377.03, 1152 421.67Q1208.76 406.43, 1224 463.18Q1299.64 418.82, 1344 494.46Q1354.73 433.19, 1416 443.93Q1457.76 413.69, 1488 455.46z" fill="#356cb1"></path><path d="M1536 560L0 560 L0 554.6Q37.14 471.75, 120 508.89Q161.6 478.49, 192 520.09Q261.41 517.5, 264 586.92Q280.34 483.26, 384 499.6Q451.81 447.41, 504 515.21Q587.62 478.83, 624 562.44Q653.12 471.56, 744 500.67Q792.59 477.25, 816 525.84Q891.93 481.77, 936 557.69Q968.41 470.1, 1056 502.51Q1135.3 461.81, 1176 541.11Q1221.75 466.87, 1296 512.62Q1385.55 482.17, 1416 571.72Q1455.07 490.79, 1536 529.85z" fill="white"></path></g><defs><mask id="SvgjsMask1000"><rect width="1440" height="560" fill="#ffffff"></rect></mask></defs></svg>